<svg width="33" height="34" viewBox="0 0 33 34" fill="none" xmlns="http://www.w3.org/2000/svg">
<path d="M17.8076 20.0335V24.9335C17.8062 26.2326 17.2741 27.4781 16.3281 28.3967C15.3822 29.3153 14.0996 29.832 12.7618 29.8335H7.71597C7.49293 29.8335 7.27903 29.9195 7.12132 30.0727C6.9636 30.2258 6.875 30.4335 6.875 30.6501C6.875 30.8667 6.9636 31.0744 7.12132 31.2276C7.27903 31.3808 7.49293 31.4668 7.71597 31.4668H12.7618C14.5455 31.4648 16.2555 30.7758 17.5168 29.551C18.7781 28.3262 19.4875 26.6656 19.4896 24.9335V20.0335C19.4896 19.8169 19.401 19.6091 19.2433 19.456C19.0856 19.3028 18.8717 19.2168 18.6486 19.2168C18.4256 19.2168 18.2117 19.3028 18.054 19.456C17.8962 19.6091 17.8076 19.8169 17.8076 20.0335Z" fill="#A5A5A5"/>
<path d="M12.7616 29.0171C13.8764 29.0158 14.9451 28.5852 15.7334 27.8197C16.5217 27.0542 16.9651 26.0164 16.9665 24.9338V19.2171C16.9651 18.1345 16.5217 17.0967 15.7334 16.3312C14.9451 15.5657 13.8764 15.1351 12.7616 15.1338H6.87478C5.75999 15.1351 4.69123 15.5657 3.90295 16.3312C3.11467 17.0967 2.67124 18.1345 2.66992 19.2171V24.9338C2.67124 26.0164 3.11467 27.0542 3.90295 27.8197C4.69123 28.5852 5.75999 29.0158 6.87478 29.0171H12.7616ZM7.55597 21.1886L8.63099 22.6322L12.1903 19.4341C12.3541 19.287 12.5714 19.2091 12.7943 19.2176C13.0173 19.226 13.2276 19.3201 13.3791 19.4792C13.5306 19.6383 13.6108 19.8492 13.6021 20.0657C13.5934 20.2822 13.4965 20.4865 13.3327 20.6336L9.07704 24.4569C8.98969 24.5353 8.88621 24.5948 8.77342 24.6315C8.66063 24.6683 8.5411 24.6813 8.42273 24.6699C8.30436 24.6584 8.18984 24.6227 8.08673 24.5651C7.98362 24.5075 7.89427 24.4293 7.82458 24.3357L6.1936 22.1456C6.06947 21.9699 6.02098 21.7541 6.05845 21.5441C6.09593 21.3342 6.21641 21.1468 6.39419 21.0219C6.57197 20.897 6.79296 20.8446 7.01001 20.8757C7.22707 20.9069 7.42299 21.0192 7.55597 21.1886Z" fill="#A5A5A5"/>
<rect x="8.85938" y="1.5" width="21.7417" height="21.2" rx="10.6" fill="#5ECFFF" stroke="white" stroke-width="3"/>
<path d="M18.2057 17.8876C19.1017 17.1409 19.8157 16.5203 20.3477 16.0256C20.8797 15.5216 21.323 14.9989 21.6777 14.4576C22.0323 13.9163 22.2097 13.3843 22.2097 12.8616C22.2097 12.3856 22.0977 12.0123 21.8737 11.7416C21.6497 11.4709 21.3043 11.3356 20.8377 11.3356C20.371 11.3356 20.0117 11.4943 19.7597 11.8116C19.5077 12.1196 19.377 12.5443 19.3677 13.0856H17.4637C17.501 11.9656 17.8323 11.1163 18.4577 10.5376C19.0923 9.95894 19.895 9.66961 20.8657 9.66961C21.9297 9.66961 22.7463 9.95428 23.3157 10.5236C23.885 11.0836 24.1697 11.8256 24.1697 12.7496C24.1697 13.4776 23.9737 14.1729 23.5817 14.8356C23.1897 15.4983 22.7417 16.0769 22.2377 16.5716C21.7337 17.0569 21.0757 17.6449 20.2637 18.3356H24.3937V19.9596H17.4777V18.5036L18.2057 17.8876Z" fill="white"/>
</svg>
