<svg xmlns="http://www.w3.org/2000/svg" xmlns:xlink="http://www.w3.org/1999/xlink" width="395" zoomAndPan="magnify" viewBox="0 0 296.25 72" height="96" preserveAspectRatio="xMidYMid meet" version="1.0"><defs><g/><clipPath id="d6499ed11d"><path d="M 0 4.648438 L 147.535156 4.648438 L 147.535156 68.984375 L 0 68.984375 Z M 0 4.648438 " clip-rule="nonzero"/></clipPath><clipPath id="fb3bac6ea2"><path d="M 0 11.378906 L 0 62.074219 C 0 65.792969 3.015625 68.808594 6.734375 68.808594 L 141.152344 68.808594 C 144.867188 68.808594 147.882812 65.792969 147.882812 62.074219 L 147.882812 11.378906 C 147.882812 7.660156 144.867188 4.648438 141.152344 4.648438 L 6.734375 4.648438 C 3.015625 4.648438 0 7.660156 0 11.378906 Z M 0 11.378906 " clip-rule="nonzero"/></clipPath></defs><g clip-path="url(#d6499ed11d)"><g clip-path="url(#fb3bac6ea2)"><path fill="#320242" d="M -0.589844 4.835938 C -0.589844 -4.261719 6.808594 -11.660156 15.90625 -11.660156 L 131.378906 -11.660156 C 140.476562 -11.660156 147.875 -4.261719 147.875 4.835938 L 147.875 21.332031 C 147.875 23.601562 145.96875 25.378906 143.828125 26.125 C 138.984375 27.800781 135.503906 32.414062 135.503906 37.828125 C 135.503906 43.242188 138.984375 47.855469 143.828125 49.53125 C 145.96875 50.277344 147.875 52.054688 147.875 54.324219 L 147.875 70.820312 C 147.875 79.917969 140.476562 87.316406 131.378906 87.316406 L 15.90625 87.316406 C 6.808594 87.316406 -0.589844 79.917969 -0.589844 70.820312 L -0.589844 54.324219 C -0.589844 52.054688 1.320312 50.277344 3.457031 49.53125 C 8.304688 47.855469 11.78125 43.242188 11.78125 37.828125 C 11.78125 32.414062 8.304688 27.800781 3.457031 26.125 C 1.320312 25.378906 -0.589844 23.601562 -0.589844 21.332031 Z M -0.589844 4.835938 " fill-opacity="1" fill-rule="nonzero"/></g></g><g fill="#ffffff" fill-opacity="1"><g transform="translate(11.969696, 49.148183)"><g><path d="M 9.796875 -22.8125 L 9.796875 -15.40625 L 22.765625 -15.40625 L 22.765625 -10.203125 L 9.796875 -10.203125 L 9.796875 0 L 3.328125 0 L 3.328125 -28.015625 L 24.484375 -28.015625 L 24.484375 -22.8125 Z M 9.796875 -22.8125 "/></g></g></g><g fill="#ffffff" fill-opacity="1"><g transform="translate(36.249391, 49.148183)"><g><path d="M 11.5625 -21.84375 C 14.894531 -21.84375 17.453125 -21.050781 19.234375 -19.46875 C 21.023438 -17.882812 21.921875 -15.488281 21.921875 -12.28125 L 21.921875 0 L 16.09375 0 L 16.09375 -2.6875 C 14.914062 -0.6875 12.726562 0.3125 9.53125 0.3125 C 7.875 0.3125 6.4375 0.0351562 5.21875 -0.515625 C 4.007812 -1.078125 3.082031 -1.851562 2.4375 -2.84375 C 1.800781 -3.832031 1.484375 -4.953125 1.484375 -6.203125 C 1.484375 -8.203125 2.234375 -9.773438 3.734375 -10.921875 C 5.242188 -12.066406 7.570312 -12.640625 10.71875 -12.640625 L 15.6875 -12.640625 C 15.6875 -14.003906 15.269531 -15.050781 14.4375 -15.78125 C 13.613281 -16.519531 12.375 -16.890625 10.71875 -16.890625 C 9.570312 -16.890625 8.445312 -16.707031 7.34375 -16.34375 C 6.238281 -15.988281 5.296875 -15.503906 4.515625 -14.890625 L 2.28125 -19.25 C 3.457031 -20.070312 4.863281 -20.707031 6.5 -21.15625 C 8.144531 -21.613281 9.832031 -21.84375 11.5625 -21.84375 Z M 11.078125 -3.875 C 12.148438 -3.875 13.097656 -4.117188 13.921875 -4.609375 C 14.753906 -5.109375 15.34375 -5.835938 15.6875 -6.796875 L 15.6875 -9 L 11.40625 -9 C 8.84375 -9 7.5625 -8.160156 7.5625 -6.484375 C 7.5625 -5.679688 7.875 -5.046875 8.5 -4.578125 C 9.125 -4.109375 9.984375 -3.875 11.078125 -3.875 Z M 11.078125 -3.875 "/></g></g></g><g fill="#ffffff" fill-opacity="1"><g transform="translate(59.649076, 49.148183)"><g><path d="M 13.28125 0.3125 C 10.988281 0.3125 8.925781 -0.15625 7.09375 -1.09375 C 5.269531 -2.039062 3.84375 -3.351562 2.8125 -5.03125 C 1.789062 -6.71875 1.28125 -8.628906 1.28125 -10.765625 C 1.28125 -12.898438 1.789062 -14.804688 2.8125 -16.484375 C 3.84375 -18.160156 5.269531 -19.472656 7.09375 -20.421875 C 8.925781 -21.367188 10.988281 -21.84375 13.28125 -21.84375 C 15.550781 -21.84375 17.53125 -21.367188 19.21875 -20.421875 C 20.914062 -19.472656 22.148438 -18.117188 22.921875 -16.359375 L 18.09375 -13.765625 C 16.96875 -15.734375 15.351562 -16.71875 13.25 -16.71875 C 11.613281 -16.71875 10.265625 -16.1875 9.203125 -15.125 C 8.140625 -14.0625 7.609375 -12.609375 7.609375 -10.765625 C 7.609375 -8.921875 8.140625 -7.460938 9.203125 -6.390625 C 10.265625 -5.328125 11.613281 -4.796875 13.25 -4.796875 C 15.382812 -4.796875 17 -5.785156 18.09375 -7.765625 L 22.921875 -5.125 C 22.148438 -3.414062 20.914062 -2.082031 19.21875 -1.125 C 17.53125 -0.164062 15.550781 0.3125 13.28125 0.3125 Z M 13.28125 0.3125 "/></g></g></g><g fill="#ffffff" fill-opacity="1"><g transform="translate(82.008761, 49.148183)"><g><path d="M 2.875 -21.53125 L 9.125 -21.53125 L 9.125 0 L 2.875 0 Z M 6 -24.53125 C 4.851562 -24.53125 3.914062 -24.863281 3.1875 -25.53125 C 2.46875 -26.195312 2.109375 -27.023438 2.109375 -28.015625 C 2.109375 -28.992188 2.46875 -29.816406 3.1875 -30.484375 C 3.914062 -31.160156 4.851562 -31.5 6 -31.5 C 7.144531 -31.5 8.078125 -31.175781 8.796875 -30.53125 C 9.515625 -29.894531 9.875 -29.09375 9.875 -28.125 C 9.875 -27.09375 9.515625 -26.234375 8.796875 -25.546875 C 8.078125 -24.867188 7.144531 -24.53125 6 -24.53125 Z M 6 -24.53125 "/></g></g></g><g fill="#ffffff" fill-opacity="1"><g transform="translate(92.768373, 49.148183)"><g><path d="M 2.875 -29.6875 L 9.125 -29.6875 L 9.125 0 L 2.875 0 Z M 2.875 -29.6875 "/></g></g></g><g fill="#ffffff" fill-opacity="1"><g transform="translate(103.527985, 49.148183)"><g><path d="M 2.875 -21.53125 L 9.125 -21.53125 L 9.125 0 L 2.875 0 Z M 6 -24.53125 C 4.851562 -24.53125 3.914062 -24.863281 3.1875 -25.53125 C 2.46875 -26.195312 2.109375 -27.023438 2.109375 -28.015625 C 2.109375 -28.992188 2.46875 -29.816406 3.1875 -30.484375 C 3.914062 -31.160156 4.851562 -31.5 6 -31.5 C 7.144531 -31.5 8.078125 -31.175781 8.796875 -30.53125 C 9.515625 -29.894531 9.875 -29.09375 9.875 -28.125 C 9.875 -27.09375 9.515625 -26.234375 8.796875 -25.546875 C 8.078125 -24.867188 7.144531 -24.53125 6 -24.53125 Z M 6 -24.53125 "/></g></g></g><g fill="#ffffff" fill-opacity="1"><g transform="translate(114.287591, 49.148183)"><g><path d="M 16.765625 -1.046875 C 16.148438 -0.585938 15.394531 -0.242188 14.5 -0.015625 C 13.613281 0.203125 12.675781 0.3125 11.6875 0.3125 C 9.125 0.3125 7.140625 -0.335938 5.734375 -1.640625 C 4.335938 -2.941406 3.640625 -4.863281 3.640625 -7.40625 L 3.640625 -16.25 L 0.3125 -16.25 L 0.3125 -21.046875 L 3.640625 -21.046875 L 3.640625 -26.296875 L 9.890625 -26.296875 L 9.890625 -21.046875 L 15.25 -21.046875 L 15.25 -16.25 L 9.890625 -16.25 L 9.890625 -7.484375 C 9.890625 -6.578125 10.117188 -5.875 10.578125 -5.375 C 11.046875 -4.882812 11.707031 -4.640625 12.5625 -4.640625 C 13.550781 -4.640625 14.390625 -4.90625 15.078125 -5.4375 Z M 16.765625 -1.046875 "/></g></g></g><g fill="#ffffff" fill-opacity="1"><g transform="translate(130.415921, 49.148183)"><g/></g></g><g fill="#ffffff" fill-opacity="1"><g transform="translate(140.455518, 49.148183)"><g/></g></g><g fill="#320242" fill-opacity="1"><g transform="translate(150.497896, 49.148183)"><g><path d="M 25.015625 -5.203125 L 25.015625 0 L 3.328125 0 L 3.328125 -28.015625 L 24.484375 -28.015625 L 24.484375 -22.8125 L 9.765625 -22.8125 L 9.765625 -16.71875 L 22.765625 -16.71875 L 22.765625 -11.6875 L 9.765625 -11.6875 L 9.765625 -5.203125 Z M 25.015625 -5.203125 "/></g></g></g><g fill="#320242" fill-opacity="1"><g transform="translate(176.057599, 49.148183)"><g><path d="M 11.5625 -21.84375 C 14.894531 -21.84375 17.453125 -21.050781 19.234375 -19.46875 C 21.023438 -17.882812 21.921875 -15.488281 21.921875 -12.28125 L 21.921875 0 L 16.09375 0 L 16.09375 -2.6875 C 14.914062 -0.6875 12.726562 0.3125 9.53125 0.3125 C 7.875 0.3125 6.4375 0.0351562 5.21875 -0.515625 C 4.007812 -1.078125 3.082031 -1.851562 2.4375 -2.84375 C 1.800781 -3.832031 1.484375 -4.953125 1.484375 -6.203125 C 1.484375 -8.203125 2.234375 -9.773438 3.734375 -10.921875 C 5.242188 -12.066406 7.570312 -12.640625 10.71875 -12.640625 L 15.6875 -12.640625 C 15.6875 -14.003906 15.269531 -15.050781 14.4375 -15.78125 C 13.613281 -16.519531 12.375 -16.890625 10.71875 -16.890625 C 9.570312 -16.890625 8.445312 -16.707031 7.34375 -16.34375 C 6.238281 -15.988281 5.296875 -15.503906 4.515625 -14.890625 L 2.28125 -19.25 C 3.457031 -20.070312 4.863281 -20.707031 6.5 -21.15625 C 8.144531 -21.613281 9.832031 -21.84375 11.5625 -21.84375 Z M 11.078125 -3.875 C 12.148438 -3.875 13.097656 -4.117188 13.921875 -4.609375 C 14.753906 -5.109375 15.34375 -5.835938 15.6875 -6.796875 L 15.6875 -9 L 11.40625 -9 C 8.84375 -9 7.5625 -8.160156 7.5625 -6.484375 C 7.5625 -5.679688 7.875 -5.046875 8.5 -4.578125 C 9.125 -4.109375 9.984375 -3.875 11.078125 -3.875 Z M 11.078125 -3.875 "/></g></g></g><g fill="#320242" fill-opacity="1"><g transform="translate(199.457284, 49.148183)"><g><path d="M 10.125 0.3125 C 8.332031 0.3125 6.582031 0.09375 4.875 -0.34375 C 3.175781 -0.78125 1.816406 -1.332031 0.796875 -2 L 2.875 -6.484375 C 3.84375 -5.867188 5.003906 -5.367188 6.359375 -4.984375 C 7.722656 -4.597656 9.054688 -4.40625 10.359375 -4.40625 C 13.003906 -4.40625 14.328125 -5.054688 14.328125 -6.359375 C 14.328125 -6.972656 13.96875 -7.410156 13.25 -7.671875 C 12.53125 -7.941406 11.421875 -8.171875 9.921875 -8.359375 C 8.160156 -8.628906 6.707031 -8.9375 5.5625 -9.28125 C 4.414062 -9.625 3.421875 -10.234375 2.578125 -11.109375 C 1.742188 -11.992188 1.328125 -13.253906 1.328125 -14.890625 C 1.328125 -16.242188 1.71875 -17.445312 2.5 -18.5 C 3.289062 -19.5625 4.4375 -20.382812 5.9375 -20.96875 C 7.445312 -21.550781 9.226562 -21.84375 11.28125 -21.84375 C 12.800781 -21.84375 14.316406 -21.675781 15.828125 -21.34375 C 17.335938 -21.007812 18.582031 -20.550781 19.5625 -19.96875 L 17.484375 -15.53125 C 15.585938 -16.59375 13.519531 -17.125 11.28125 -17.125 C 9.945312 -17.125 8.945312 -16.9375 8.28125 -16.5625 C 7.613281 -16.1875 7.28125 -15.707031 7.28125 -15.125 C 7.28125 -14.457031 7.640625 -13.988281 8.359375 -13.71875 C 9.078125 -13.457031 10.222656 -13.207031 11.796875 -12.96875 C 13.566406 -12.675781 15.007812 -12.363281 16.125 -12.03125 C 17.25 -11.695312 18.222656 -11.085938 19.046875 -10.203125 C 19.867188 -9.328125 20.28125 -8.097656 20.28125 -6.515625 C 20.28125 -5.179688 19.878906 -3.992188 19.078125 -2.953125 C 18.285156 -1.921875 17.117188 -1.117188 15.578125 -0.546875 C 14.046875 0.0234375 12.226562 0.3125 10.125 0.3125 Z M 10.125 0.3125 "/></g></g></g><g fill="#320242" fill-opacity="1"><g transform="translate(219.416947, 49.148183)"><g><path d="M 23.96875 -10.6875 C 23.96875 -10.601562 23.925781 -10.039062 23.84375 -9 L 7.5625 -9 C 7.851562 -7.664062 8.546875 -6.613281 9.640625 -5.84375 C 10.734375 -5.070312 12.09375 -4.6875 13.71875 -4.6875 C 14.84375 -4.6875 15.835938 -4.851562 16.703125 -5.1875 C 17.566406 -5.519531 18.375 -6.046875 19.125 -6.765625 L 22.453125 -3.15625 C 20.421875 -0.84375 17.457031 0.3125 13.5625 0.3125 C 11.132812 0.3125 8.988281 -0.15625 7.125 -1.09375 C 5.257812 -2.039062 3.816406 -3.351562 2.796875 -5.03125 C 1.785156 -6.71875 1.28125 -8.628906 1.28125 -10.765625 C 1.28125 -12.867188 1.78125 -14.765625 2.78125 -16.453125 C 3.78125 -18.148438 5.15625 -19.472656 6.90625 -20.421875 C 8.65625 -21.367188 10.609375 -21.84375 12.765625 -21.84375 C 14.867188 -21.84375 16.773438 -21.390625 18.484375 -20.484375 C 20.191406 -19.578125 21.53125 -18.273438 22.5 -16.578125 C 23.476562 -14.890625 23.96875 -12.925781 23.96875 -10.6875 Z M 12.8125 -17.125 C 11.394531 -17.125 10.203125 -16.722656 9.234375 -15.921875 C 8.273438 -15.117188 7.691406 -14.023438 7.484375 -12.640625 L 18.09375 -12.640625 C 17.875 -14.003906 17.285156 -15.09375 16.328125 -15.90625 C 15.367188 -16.71875 14.195312 -17.125 12.8125 -17.125 Z M 12.8125 -17.125 "/></g></g></g></svg>