<?xml version="1.0" encoding="utf-8"?>
<!-- Svg Vector Icons : http://www.onlinewebfonts.com/icon -->
<!DOCTYPE svg PUBLIC "-//W3C//DTD SVG 1.1//EN" "http://www.w3.org/Graphics/SVG/1.1/DTD/svg11.dtd">
<svg version="1.1" xmlns="http://www.w3.org/2000/svg" xmlns:xlink="http://www.w3.org/1999/xlink" x="0px" y="0px" viewBox="0 0 256 256" enable-background="new 0 0 256 256" xml:space="preserve">
<metadata> Svg Vector Icons : http://www.onlinewebfonts.com/icon </metadata>
<g><g><g><path fill="#000000" d="M177.5,17.9c-1,0.4-17.5,12.4-20.2,14.7c-0.2,0.2,0,1.1,0.6,1.9c2.7,4.4-0.6,10.6-5.5,10.6c-1.9,0-4.2-1.3-5.3-3l-0.7-1.1l-25,19c-13.7,10.5-43.3,33-65.8,50c-22.5,17.1-41.5,31.7-42.4,32.5c-2.9,2.8-4,6.8-2.6,10.4c0.3,0.8,4.1,6.3,8.5,12l8,10.5l2.3-0.6c9-2.4,19.2,1.6,24.3,9.5c4.4,6.9,4.6,15.8,0.6,23.2l-1.2,2.1l5,6.6c10.3,13.6,10.7,14.1,13,15.1c1.7,0.8,2.7,1,5,0.8c2.4-0.1,3.2-0.4,5.4-2c1.4-1,31.8-24.1,67.6-51.4l65-49.5l-0.7-1.6c-1-2.4-0.4-5.1,1.7-7.1c1-0.9,2.3-1.8,2.9-2c1.8-0.5,4.2,0.1,5.6,1.4l1.2,1.2l9.5-7.2c10-7.6,11-8.8,11.5-12.5c0.5-3.4-0.5-5.1-8.4-15.6c-5.9-7.8-7.9-10.1-8.7-10.1c-0.5,0-2.3,0.3-3.9,0.6c-9.5,1.7-19.1-3.5-23.5-12.7c-1.5-3.2-1.7-4-1.8-8c-0.2-4.9,0.7-9.1,2.9-12.5l1.1-1.8l-7-9.2c-3.8-5.1-7.9-10.2-9-11.4C184.6,17.6,181.1,16.6,177.5,17.9z M169,49.4c3.1,1.6,4.3,6.8,2.2,10c-3.6,5.5-11.8,3-11.8-3.6c0-3.9,2.8-7,6.3-7C166.7,48.7,168.3,49,169,49.4z M183,67.2c2.7,1.9,3.6,6.3,1.8,9.2c-3.4,5.9-11.4,4-12-2.8C172.2,67.8,178.3,64,183,67.2z M150.1,77.9c1.7,1.1,26.3,32.3,27.8,35.3c0.4,0.8,0.7,2.5,0.7,4c0,5.4,2.3,3.3-41.9,37.6c-22,17.1-40.7,31.4-41.6,31.9c-3.4,1.8-8.5,0.6-11.3-2.4c-2.4-2.7-24.9-31.9-25.7-33.5c-1-2-1-6.2,0.1-8.3c0.5-0.9,1.6-2.4,2.4-3.1c3.1-3,78.1-60.9,80.1-61.9C143.6,75.9,147.5,76.2,150.1,77.9z M194.3,83.7c2.2,0.6,4,2.5,4.7,4.9c0.5,1.8,0.5,2.4-0.2,4.1c-1.6,4.1-5.2,5.7-8.8,3.9c-2.2-1.1-3.9-3.8-3.9-6.1c0-2.7,1.8-5.4,4.4-6.6C192.1,83.2,192.4,83.2,194.3,83.7z M208.1,101.3c4.9,1.8,6.2,7.7,2.4,11.5c-2.8,2.8-6.5,2.7-9.1-0.2c-2.4-2.7-2.5-6.3-0.2-9C203.2,101.2,205.6,100.3,208.1,101.3z"/><path fill="#000000" d="M193.4,150.7c-2.2,0.7-5.2,3.8-5.9,6.1c-0.4,1.2-0.6,5.4-0.6,12.4v10.4h-10.4c-12,0-13.4,0.3-16.1,3c-2.5,2.5-3,4.4-3,11.8s0.5,9.3,3,11.8c2.7,2.7,4.1,3,16.1,3H187v10.4c0,12,0.3,13.4,3,16.1c2.5,2.5,4.4,3,11.8,3s9.3-0.5,11.8-3c2.7-2.7,3-4.1,3-16.1v-10.4h10.4c12,0,13.4-0.3,16.1-3c2.5-2.5,3-4.4,3-11.8s-0.5-9.3-3-11.8c-2.7-2.7-4.1-3-16.1-3h-10.4v-10.4c0-6.9-0.2-11.1-0.6-12.4c-0.7-2.4-3.7-5.4-6.2-6.2C207.4,150,195.7,150,193.4,150.7z"/></g></g></g>
</svg>