<svg width="21" height="20" viewBox="0 0 21 20" fill="none" xmlns="http://www.w3.org/2000/svg">
<path d="M10.1829 4.40525L9.77084 3.20475C9.71296 3.04344 9.60511 2.90347 9.46207 2.80404C9.31903 2.70462 9.14782 2.65061 8.97192 2.64941H4.76706C4.09854 2.65131 3.45796 2.91004 2.98524 3.3691C2.51253 3.82815 2.24609 4.45022 2.24414 5.09941V6.73275H7.78615L10.1829 4.40525Z" fill="#A5A5A5"/>
<path d="M16.5407 5.09961H11.848L8.72804 8.12944C8.5677 8.27991 8.35391 8.36471 8.13095 8.36628H2.24414V14.8996C2.24609 15.5488 2.51253 16.1709 2.98524 16.6299C3.45796 17.089 4.09854 17.3477 4.76706 17.3496H16.5407C17.2092 17.3477 17.8498 17.089 18.3225 16.6299C18.7952 16.1709 19.0616 15.5488 19.0636 14.8996V7.54961C19.0616 6.90041 18.7952 6.27835 18.3225 5.81929C17.8498 5.36024 17.2092 5.10151 16.5407 5.09961Z" fill="#A5A5A5"/>
</svg>
